<?xml version="1.0" standalone="no"?>
<!DOCTYPE svg PUBLIC "-//W3C//DTD SVG 20010904//EN"
 "http://www.w3.org/TR/2001/REC-SVG-20010904/DTD/svg10.dtd">
<svg version="1.0" xmlns="http://www.w3.org/2000/svg"
 width="500.000000pt" height="500.000000pt" viewBox="0 0 500.000000 500.000000"
 preserveAspectRatio="xMidYMid meet">

<g transform="translate(0.000000,500.000000) scale(0.100000,-0.100000)"
fill="#000000" stroke="none">
<path d="M4209 4055 c-149 -30 -275 -102 -392 -224 -87 -91 -149 -191 -189
-303 -54 -153 -58 -204 -58 -754 l0 -504 -480 0 -480 0 0 -80 0 -80 481 0 480
0 -3 -510 -3 -510 280 0 280 0 -3 992 c-2 630 1 1060 8 1176 25 431 107 607
336 724 87 45 102 66 54 79 -42 12 -241 8 -311 -6z"/>
<path d="M3215 3814 c-152 -42 -191 -44 -1160 -44 -531 0 -978 -4 -1042 -10
-196 -17 -333 -77 -443 -191 -168 -177 -169 -416 -1 -617 45 -54 55 -61 71
-52 20 10 20 12 -4 58 -63 124 -78 278 -37 383 46 120 154 203 317 245 97 24
101 24 493 22 l396 -3 0 -1120 0 -1120 -22 -41 c-47 -88 -107 -128 -207 -140
-46 -6 -56 -10 -56 -25 0 -18 21 -19 565 -19 544 0 565 1 565 19 0 15 -10 19
-56 25 -95 11 -169 62 -205 141 -18 38 -19 95 -19 1163 l0 1122 253 0 c138 0
279 -4 311 -10 177 -29 292 -154 305 -334 5 -66 9 -81 24 -84 16 -3 17 17 17
322 0 179 -3 325 -7 325 -5 -1 -30 -8 -58 -15z"/>
</g>
</svg>
